<?xml version="1.0" standalone="no"?>
<!DOCTYPE svg PUBLIC "-//W3C//DTD SVG 20010904//EN"
 "http://www.w3.org/TR/2001/REC-SVG-20010904/DTD/svg10.dtd">
<svg version="1.0" xmlns="http://www.w3.org/2000/svg"
 width="16.000000pt" height="16.000000pt" viewBox="0 0 16.000000 16.000000"
 preserveAspectRatio="xMidYMid meet">
<metadata>
Created by potrace 1.11, written by Peter Selinger 2001-2013
</metadata>
<g transform="translate(0.000000,16.000000) scale(0.006400,-0.006400)"
fill="#000000" stroke="none">
<path d="M1053 2155 c-17 -55 -92 -291 -166 -525 -74 -234 -145 -456 -157
-495 -12 -38 -30 -94 -41 -123 -10 -28 -19 -53 -18 -55 0 -1 -2 -9 -5 -17 -2
-8 -55 -175 -116 -370 -61 -195 -113 -361 -115 -368 -3 -9 22 -12 104 -12
l109 0 6 27 c7 27 178 572 196 623 5 14 36 113 70 220 34 107 82 258 107 335
25 77 53 167 63 200 18 63 197 626 206 648 3 10 -21 13 -104 12 l-108 0 -31
-100z"/>
<path d="M1884 2249 c-2 -4 -19 -56 -38 -115 -19 -60 -80 -253 -136 -429 -125
-394 -191 -601 -255 -805 -27 -87 -214 -679 -220 -697 -3 -10 22 -13 105 -13
79 0 110 3 110 12 0 7 23 82 50 168 54 166 58 179 145 455 31 99 65 205 75
235 10 30 40 123 65 205 26 83 67 211 90 285 69 213 217 684 219 695 1 11
-203 15 -210 4z"/>
</g>
</svg>
