<svg version="1" xmlns="http://www.w3.org/2000/svg" width="21.333" height="21.333" viewBox="0 0 16.000000 16.000000"><path d="M6.74 2.208c-.11.352-.59 1.862-1.063 3.36-.474 1.498-.928 2.918-1.005 3.168-.077.243-.192.602-.262.787-.064.18-.122.34-.116.352 0 .007-.012.058-.032.11-.012.05-.352 1.12-.742 2.367-.39 1.248-.723 2.31-.736 2.355-.02.058.14.077.666.077h.697l.04-.173c.043-.17 1.138-3.66 1.253-3.984.032-.09.23-.723.448-1.408.218-.685.525-1.65.685-2.144.16-.493.34-1.07.403-1.28.115-.403 1.26-4.006 1.318-4.147.02-.064-.134-.083-.665-.077h-.694l-.2.64zm5.318-.602c-.013.026-.122.36-.244.736-.12.384-.512 1.62-.87 2.746-.8 2.522-1.222 3.846-1.632 5.152-.173.557-1.37 4.346-1.408 4.46-.02.065.14.084.672.084.506 0 .704-.02.704-.077 0-.045.147-.525.32-1.075.346-1.062.37-1.146.928-2.912.198-.634.416-1.312.48-1.504.064-.192.256-.787.416-1.312.166-.53.43-1.35.576-1.824.442-1.363 1.39-4.378 1.402-4.448.006-.07-1.3-.096-1.344-.026z"/></svg>
