<?xml version="1.0" standalone="no"?>
<!DOCTYPE svg PUBLIC "-//W3C//DTD SVG 20010904//EN"
 "http://www.w3.org/TR/2001/REC-SVG-20010904/DTD/svg10.dtd">
<svg version="1.0" xmlns="http://www.w3.org/2000/svg"
 width="256.000000pt" height="256.000000pt" viewBox="0 0 256.000000 256.000000"
 preserveAspectRatio="xMidYMid meet">
<metadata>
Created by potrace 1.11, written by Peter Selinger 2001-2013
</metadata>
<g transform="translate(0.000000,256.000000) scale(0.100000,-0.100000)"
fill="#000000" stroke="none">
<path d="M39 2353 c-4 -29 1 -2136 5 -2140 6 -6 2466 -6 2472 0 4 4 9 2066 5
2130 -1 16 -67 17 -1241 17 -682 0 -1240 -3 -1241 -7z m2311 -162 c3 -1 6
-409 5 -908 l0 -908 -1075 0 -1075 1 -1 904 c0 498 0 907 2 910 2 4 2122 5
2144 1z"/>
<path d="M394 1975 c1 -19 4 -36 7 -38 2 -2 55 -24 117 -49 90 -35 110 -47
100 -56 -8 -6 -57 -28 -109 -48 -52 -20 -99 -40 -105 -45 -11 -9 -17 -69 -7
-69 7 0 98 34 238 87 l100 39 3 40 3 41 -170 66 c-94 37 -173 67 -176 67 -2 0
-3 -16 -1 -35z"/>
<path d="M787 1610 c-16 -7 -20 -60 -4 -60 25 -1 254 -2 293 -1 38 1 41 3 42
31 0 17 -2 31 -6 31 -23 4 -314 3 -325 -1z"/>
</g>
</svg>
